<svg width="273" height="248" viewBox="0 0 273 248" fill="none" xmlns="http://www.w3.org/2000/svg">
<path d="M263.5 24H89.5L96 1H32.5L1 132H32.5H234L263.5 24Z" fill="#FFBB0D" stroke="#FFBB0D"/>
<path d="M32.5 132H234L272 247H40L1 132H32.5Z" fill="#FF9E0D" stroke="#FF9E0D"/>
<path d="M105.1 120.28H109.28V121.04L107.7 121.32L104.5 130H103.28L100.5 122.38L97.78 130H96.48L93.3 121.34L91.6 121.04V120.3H96.68V121.04L95.3 121.32L97.62 127.94L100.32 120.26H101.62L104.44 128.02L106.56 121.3L105.1 121.04V120.28ZM110.887 120.3H114.127V128.86L115.527 129.26V130H110.787V129.26L112.247 128.82V121.26L110.887 121.02V120.3ZM111.547 116.04C111.547 115.68 111.66 115.4 111.887 115.2C112.127 114.987 112.44 114.88 112.827 114.88C113.227 114.88 113.547 114.987 113.787 115.2C114.027 115.4 114.147 115.68 114.147 116.04C114.147 116.387 114.033 116.667 113.807 116.88C113.58 117.093 113.26 117.2 112.847 117.2C112.447 117.2 112.127 117.1 111.887 116.9C111.66 116.687 111.547 116.4 111.547 116.04ZM120.312 120.3H123.232V121.14H120.312V127.34C120.312 128.127 120.405 128.673 120.592 128.98C120.779 129.273 121.079 129.42 121.492 129.42C121.905 129.42 122.465 129.32 123.172 129.12V129.86C122.239 130.113 121.479 130.24 120.892 130.24C119.265 130.24 118.452 129.26 118.452 127.3V121.14H116.732V120.3H118.452V118.24L120.312 117.18V120.3ZM124.361 115H127.601V122.74C128.055 121.007 129.195 120.14 131.021 120.14C132.048 120.14 132.848 120.44 133.421 121.04C133.995 121.627 134.281 122.5 134.281 123.66V128.84L135.741 129.26V130H131.001V129.26L132.381 128.84V123.7C132.381 122.767 132.235 122.1 131.941 121.7C131.648 121.3 131.195 121.1 130.581 121.1C129.635 121.1 128.901 121.533 128.381 122.4C127.861 123.267 127.601 124.587 127.601 126.36V128.86L128.981 129.26V130H124.241V129.26L125.701 128.82V115.96L124.361 115.72V115ZM144.719 125.22C144.719 123.78 144.499 122.713 144.059 122.02C143.619 121.313 142.899 120.96 141.899 120.96C140.912 120.96 140.179 121.3 139.699 121.98C139.232 122.647 138.999 123.72 138.999 125.2C138.999 126.68 139.232 127.747 139.699 128.4C140.166 129.04 140.879 129.36 141.839 129.36C142.812 129.36 143.532 129.033 143.999 128.38C144.479 127.713 144.719 126.66 144.719 125.22ZM136.979 125.22C136.979 123.647 137.426 122.407 138.319 121.5C139.212 120.58 140.392 120.12 141.859 120.12C143.339 120.12 144.519 120.567 145.399 121.46C146.279 122.353 146.719 123.6 146.719 125.2C146.719 126.8 146.279 128.033 145.399 128.9C144.519 129.753 143.332 130.18 141.839 130.18C140.359 130.18 139.179 129.747 138.299 128.88C137.419 128.013 136.979 126.793 136.979 125.22ZM148.52 120.3H151.84V126.28C151.84 127.333 151.973 128.08 152.24 128.52C152.52 128.96 152.973 129.18 153.6 129.18C154.533 129.18 155.266 128.74 155.8 127.86C156.333 126.98 156.6 125.633 156.6 123.82V121.3L155.14 121.04V120.3H158.46V128.8L160.04 129.26V130H156.72V127.3C156.373 128.247 155.886 128.973 155.26 129.48C154.646 129.973 153.973 130.22 153.24 130.22C151.053 130.22 149.96 129.02 149.96 126.62V121.3L148.52 121.04V120.3ZM164.355 120.3H167.275V121.14H164.355V127.34C164.355 128.127 164.448 128.673 164.635 128.98C164.822 129.273 165.122 129.42 165.535 129.42C165.948 129.42 166.508 129.32 167.215 129.12V129.86C166.282 130.113 165.522 130.24 164.935 130.24C163.308 130.24 162.495 129.26 162.495 127.3V121.14H160.775V120.3H162.495V118.24L164.355 117.18V120.3ZM97.825 148.3H101.145V151.14C101.412 150.34 101.825 149.673 102.385 149.14C102.945 148.593 103.625 148.32 104.425 148.32C104.918 148.32 105.512 148.5 106.205 148.86V151.26H105.425L104.805 149.62C104.552 149.487 104.265 149.42 103.945 149.42C103.358 149.42 102.765 149.767 102.165 150.46C101.578 151.14 101.285 151.873 101.285 152.66V156.84L102.765 157.26V158H97.865V157.26L99.385 156.84V149.3L97.825 149.02V148.3ZM116.051 154.62V156.9C115.291 157.767 114.064 158.2 112.371 158.2C110.691 158.2 109.444 157.76 108.631 156.88C107.817 155.987 107.411 154.753 107.411 153.18C107.411 151.607 107.837 150.373 108.691 149.48C109.557 148.573 110.717 148.12 112.171 148.12C113.037 148.12 113.757 148.28 114.331 148.6C114.917 148.92 115.337 149.347 115.591 149.88C115.991 150.76 116.191 151.687 116.191 152.66H109.411C109.411 154.167 109.584 155.313 109.931 156.1C110.331 156.993 111.117 157.44 112.291 157.44C112.704 157.44 113.097 157.387 113.471 157.28C113.857 157.16 114.137 157.047 114.311 156.94C114.484 156.833 114.571 156.767 114.571 156.74L115.311 154.62H116.051ZM112.131 148.9C110.997 148.9 110.224 149.42 109.811 150.46C109.611 150.927 109.491 151.44 109.451 152H114.451C114.451 149.933 113.677 148.9 112.131 148.9ZM125.966 155.14C125.966 156.033 125.633 156.753 124.966 157.3C124.3 157.833 123.273 158.1 121.886 158.1C120.513 158.1 119.44 157.733 118.666 157V154.68H119.446L120.026 156.64C120.493 157.107 121.24 157.34 122.266 157.34C122.986 157.34 123.533 157.18 123.906 156.86C124.28 156.54 124.466 156.153 124.466 155.7C124.466 155.247 124.273 154.893 123.886 154.64C123.5 154.387 122.733 154.08 121.586 153.72C120.453 153.347 119.66 152.96 119.206 152.56C118.753 152.16 118.526 151.567 118.526 150.78C118.526 149.98 118.853 149.32 119.506 148.8C120.16 148.28 121.12 148.02 122.386 148.02C123.653 148.02 124.673 148.32 125.446 148.92V151.22H124.666L124.046 149.3C123.606 148.953 123.02 148.78 122.286 148.78C120.833 148.78 120.106 149.3 120.106 150.34C120.106 150.727 120.313 151.067 120.726 151.36C121.153 151.64 121.926 151.953 123.046 152.3C124.166 152.647 124.933 153.04 125.346 153.48C125.76 153.907 125.966 154.46 125.966 155.14ZM127.641 148.3H130.961V154.28C130.961 155.333 131.094 156.08 131.361 156.52C131.641 156.96 132.094 157.18 132.721 157.18C133.654 157.18 134.387 156.74 134.921 155.86C135.454 154.98 135.721 153.633 135.721 151.82V149.3L134.261 149.04V148.3H137.581V156.8L139.161 157.26V158H135.841V155.3C135.494 156.247 135.007 156.973 134.381 157.48C133.767 157.973 133.094 158.22 132.361 158.22C130.174 158.22 129.081 157.02 129.081 154.62V149.3L127.641 149.04V148.3ZM140.816 143H144.156V156.82L145.776 157.26V158H140.696V157.26L142.256 156.84V143.96L140.816 143.72V143ZM150.351 148.3H153.271V149.14H150.351V155.34C150.351 156.127 150.444 156.673 150.631 156.98C150.818 157.273 151.118 157.42 151.531 157.42C151.944 157.42 152.504 157.32 153.211 157.12V157.86C152.278 158.113 151.518 158.24 150.931 158.24C149.304 158.24 148.491 157.26 148.491 155.3V149.14H146.771V148.3H148.491V146.24L150.351 145.18V148.3ZM162.04 155.14C162.04 156.033 161.707 156.753 161.04 157.3C160.374 157.833 159.347 158.1 157.96 158.1C156.587 158.1 155.514 157.733 154.74 157V154.68H155.52L156.1 156.64C156.567 157.107 157.314 157.34 158.34 157.34C159.06 157.34 159.607 157.18 159.98 156.86C160.354 156.54 160.54 156.153 160.54 155.7C160.54 155.247 160.347 154.893 159.96 154.64C159.574 154.387 158.807 154.08 157.66 153.72C156.527 153.347 155.734 152.96 155.28 152.56C154.827 152.16 154.6 151.567 154.6 150.78C154.6 149.98 154.927 149.32 155.58 148.8C156.234 148.28 157.194 148.02 158.46 148.02C159.727 148.02 160.747 148.32 161.52 148.92V151.22H160.74L160.12 149.3C159.68 148.953 159.094 148.78 158.36 148.78C156.907 148.78 156.18 149.3 156.18 150.34C156.18 150.727 156.387 151.067 156.8 151.36C157.227 151.64 158 151.953 159.12 152.3C160.24 152.647 161.007 153.04 161.42 153.48C161.834 153.907 162.04 154.46 162.04 155.14Z" fill="black"/>
</svg>
