<svg width="144" height="136" viewBox="0 0 144 136" fill="none" xmlns="http://www.w3.org/2000/svg">
<ellipse cx="60.538" cy="58.2921" rx="46.7446" ry="44.8315" fill="#C4C4C4" fill-opacity="0.31"/>
<path d="M60.2983 116.748C73.6768 116.746 86.6698 112.521 97.2084 104.748L130.342 136L141 125.948L107.866 94.6952C116.112 84.7541 120.593 72.4961 120.597 59.8741C120.597 28.5151 93.5452 3 60.2983 3C27.0513 3 0 28.5151 0 59.8741C0 91.233 27.0513 116.748 60.2983 116.748ZM60.2983 17.2185C85.2392 17.2185 105.522 36.3495 105.522 59.8741C105.522 83.3986 85.2392 102.53 60.2983 102.53C35.3574 102.53 15.0746 83.3986 15.0746 59.8741C15.0746 36.3495 35.3574 17.2185 60.2983 17.2185Z" fill="black"/>
<path d="M63.2983 113.748C76.6768 113.746 89.6698 109.521 100.208 101.748L133.342 133L144 122.948L110.866 91.6952C119.112 81.7541 123.593 69.4961 123.597 56.8741C123.597 25.5151 96.5452 0 63.2983 0C30.0513 0 3 25.5151 3 56.8741C3 88.233 30.0513 113.748 63.2983 113.748ZM63.2983 14.2185C88.2392 14.2185 108.522 33.3495 108.522 56.8741C108.522 80.3986 88.2392 99.5296 63.2983 99.5296C38.3574 99.5296 18.0746 80.3986 18.0746 56.8741C18.0746 33.3495 38.3574 14.2185 63.2983 14.2185Z" fill="#111111"/>
</svg>
