<svg width="65" height="25" viewBox="0 0 65 25" fill="none" xmlns="http://www.w3.org/2000/svg">
<path d="M32.36 19.952C32.1467 20.0693 31.9173 20.128 31.672 20.128C31.48 20.128 31.32 20.0907 31.192 20.016C31.0747 19.9413 30.968 19.8187 30.872 19.648L29.048 16.512C28.792 16.064 28.4773 15.7493 28.104 15.568C27.7413 15.376 27.2453 15.28 26.616 15.28H25.528V20H24.376V8.8H28.008C29.2987 8.8 30.312 9.088 31.048 9.664C31.784 10.2293 32.152 11.0187 32.152 12.032C32.152 12.832 31.8853 13.5253 31.352 14.112C30.8187 14.688 30.1253 15.0453 29.272 15.184C29.5813 15.44 29.8587 15.7653 30.104 16.16L32.36 19.952ZM27.928 14.288C28.888 14.288 29.6293 14.0907 30.152 13.696C30.6853 13.3013 30.952 12.7467 30.952 12.032C30.952 11.296 30.7013 10.7413 30.2 10.368C29.7093 9.984 28.9787 9.792 28.008 9.792H25.528V14.288H27.928ZM36.3505 20.12C35.4225 20.12 34.7225 19.832 34.2505 19.256C33.7785 18.68 33.5425 17.824 33.5425 16.688C33.5425 14.416 34.4785 13.28 36.3505 13.28C38.2225 13.28 39.1585 14.416 39.1585 16.688C39.1585 17.824 38.9225 18.68 38.4505 19.256C37.9785 19.832 37.2785 20.12 36.3505 20.12ZM36.3505 19.448C37.0305 19.448 37.5265 19.228 37.8385 18.788C38.1585 18.34 38.3185 17.64 38.3185 16.688C38.3185 15.744 38.1585 15.052 37.8385 14.612C37.5265 14.172 37.0305 13.952 36.3505 13.952C35.6705 13.952 35.1705 14.172 34.8505 14.612C34.5385 15.052 34.3825 15.744 34.3825 16.688C34.3825 17.64 34.5385 18.34 34.8505 18.788C35.1705 19.228 35.6705 19.448 36.3505 19.448ZM43.1887 20.12C42.2207 20.12 41.4647 19.816 40.9207 19.208C40.3847 18.6 40.1167 17.752 40.1167 16.664C40.1167 15.976 40.2367 15.38 40.4767 14.876C40.7247 14.364 41.0767 13.972 41.5327 13.7C41.9887 13.42 42.5247 13.28 43.1407 13.28C43.8767 13.28 44.4807 13.468 44.9527 13.844C45.4327 14.212 45.7127 14.716 45.7927 15.356C45.7207 15.388 45.6207 15.42 45.4927 15.452C45.3727 15.484 45.2727 15.5 45.1927 15.5C45.1127 15.5 45.0527 15.48 45.0127 15.44C44.9807 15.392 44.9447 15.296 44.9047 15.152C44.8167 14.776 44.6167 14.484 44.3047 14.276C43.9927 14.06 43.6047 13.952 43.1407 13.952C42.7087 13.952 42.3247 14.064 41.9887 14.288C41.6607 14.512 41.4047 14.832 41.2207 15.248C41.0447 15.656 40.9567 16.128 40.9567 16.664C40.9567 17.512 41.1567 18.188 41.5567 18.692C41.9647 19.196 42.5087 19.448 43.1887 19.448C43.7087 19.448 44.1527 19.328 44.5207 19.088C44.8887 18.84 45.1647 18.48 45.3487 18.008C45.4607 18.008 45.5527 18.056 45.6247 18.152C45.7047 18.248 45.7447 18.36 45.7447 18.488C45.7447 18.768 45.6247 19.036 45.3847 19.292C45.1527 19.54 44.8367 19.74 44.4367 19.892C44.0447 20.044 43.6287 20.12 43.1887 20.12ZM52.5941 20C52.4581 20 52.3021 20.008 52.1261 20.024C51.9821 20.04 51.8941 20.048 51.8621 20.048C51.7101 20.048 51.5941 19.984 51.5141 19.856L49.9661 17.36C49.7341 16.984 49.3141 16.808 48.7061 16.832L48.1541 16.856V20H47.3381V10.508H48.1541V16.112L48.6221 16.1C48.7901 16.092 48.9341 16.06 49.0541 16.004C49.1741 15.94 49.2821 15.844 49.3781 15.716L51.1781 13.4H52.1861L50.0501 16.016C50.0341 16.032 49.9981 16.076 49.9421 16.148C49.8861 16.212 49.8141 16.268 49.7261 16.316C50.1181 16.42 50.4021 16.612 50.5781 16.892L52.5941 20ZM59.0486 16.232C59.0486 16.416 59.0406 16.6 59.0246 16.784H54.2486C54.2646 17.616 54.4486 18.264 54.8006 18.728C55.1606 19.192 55.6566 19.424 56.2886 19.424C56.7206 19.424 57.0846 19.34 57.3806 19.172C57.6846 19.004 57.9366 18.736 58.1366 18.368C58.1926 18.264 58.2766 18.212 58.3886 18.212C58.5166 18.212 58.6926 18.288 58.9166 18.44C58.7406 18.96 58.4166 19.372 57.9446 19.676C57.4726 19.972 56.9206 20.12 56.2886 20.12C55.7046 20.12 55.1926 19.984 54.7526 19.712C54.3206 19.432 53.9886 19.036 53.7566 18.524C53.5246 18.004 53.4086 17.392 53.4086 16.688C53.4086 15.624 53.6726 14.792 54.2006 14.192C54.7286 13.584 55.4526 13.28 56.3726 13.28C57.2126 13.28 57.8686 13.54 58.3406 14.06C58.8126 14.58 59.0486 15.304 59.0486 16.232ZM58.2086 16.136C58.2086 14.696 57.5846 13.976 56.3366 13.976C55.7286 13.976 55.2486 14.16 54.8966 14.528C54.5446 14.896 54.3366 15.432 54.2726 16.136H58.2086ZM63.6274 19.196C63.6834 19.236 63.7274 19.296 63.7594 19.376C63.7994 19.448 63.8194 19.524 63.8194 19.604C63.8194 19.756 63.7554 19.864 63.6274 19.928C63.3714 20.056 63.0394 20.12 62.6314 20.12C62.1114 20.12 61.6954 19.98 61.3834 19.7C61.0714 19.412 60.9154 19.028 60.9154 18.548V14.048H59.6674V13.4H60.9154V11.6H61.7314V13.4H63.4594V14.048H61.7314V18.392C61.7314 19.064 62.0194 19.4 62.5954 19.4C62.9634 19.4 63.3074 19.332 63.6274 19.196Z" fill="white"/>
<path d="M15.78 15.84C15.78 15.84 18.64 13 19.61 12C22.68 9 21.15 2.82 21.15 2.82C21.15 2.82 15 1.29 12 4.36C9.66 6.64 8.14 8.22 8.14 8.22C8.14 8.22 4.3 7.42 2 9.72L14.25 22C16.55 19.67 15.78 15.84 15.78 15.84ZM14.28 6.84C14.4657 6.65405 14.6863 6.50653 14.9291 6.40588C15.1719 6.30523 15.4322 6.25343 15.695 6.25343C15.9578 6.25343 16.2181 6.30523 16.4609 6.40588C16.7037 6.50653 16.9243 6.65405 17.11 6.84C17.3895 7.11979 17.5797 7.47616 17.6567 7.86406C17.7337 8.25197 17.694 8.65399 17.5425 9.01931C17.3911 9.38463 17.1348 9.69686 16.8059 9.91652C16.4771 10.1362 16.0905 10.2534 15.695 10.2534C15.2995 10.2534 14.9129 10.1362 14.5841 9.91652C14.2552 9.69686 13.9989 9.38463 13.8475 9.01931C13.696 8.65399 13.6563 8.25197 13.7333 7.86406C13.8103 7.47616 14.0005 7.11979 14.28 6.84ZM3 21C4.85107 20.9472 6.62315 20.2384 8 19L5 16C3 17 3 21 3 21Z" fill="white"/>
</svg>
