<svg width="273" height="248" viewBox="0 0 273 248" fill="none" xmlns="http://www.w3.org/2000/svg">
<path d="M263.5 24H89.5L96 1H32.5L1 132H32.5H234L263.5 24Z" fill="#FFBB0D" stroke="#FFBB0D"/>
<path d="M32.5 132H234L272 247H40L1 132H32.5Z" fill="#FF9E0D" stroke="#FF9E0D"/>
<path d="M109.1 117.28H113.28V118.04L111.7 118.32L108.5 127H107.28L104.5 119.38L101.78 127H100.48L97.3 118.34L95.6 118.04V117.3H100.68V118.04L99.3 118.32L101.62 124.94L104.32 117.26H105.62L108.44 125.02L110.56 118.3L109.1 118.04V117.28ZM114.887 117.3H118.127V125.86L119.527 126.26V127H114.787V126.26L116.247 125.82V118.26L114.887 118.02V117.3ZM115.547 113.04C115.547 112.68 115.66 112.4 115.887 112.2C116.127 111.987 116.44 111.88 116.827 111.88C117.227 111.88 117.547 111.987 117.787 112.2C118.027 112.4 118.147 112.68 118.147 113.04C118.147 113.387 118.033 113.667 117.807 113.88C117.58 114.093 117.26 114.2 116.847 114.2C116.447 114.2 116.127 114.1 115.887 113.9C115.66 113.687 115.547 113.4 115.547 113.04ZM124.312 117.3H127.232V118.14H124.312V124.34C124.312 125.127 124.405 125.673 124.592 125.98C124.779 126.273 125.079 126.42 125.492 126.42C125.905 126.42 126.465 126.32 127.172 126.12V126.86C126.239 127.113 125.479 127.24 124.892 127.24C123.265 127.24 122.452 126.26 122.452 124.3V118.14H120.732V117.3H122.452V115.24L124.312 114.18V117.3ZM128.361 112H131.601V119.74C132.055 118.007 133.195 117.14 135.021 117.14C136.048 117.14 136.848 117.44 137.421 118.04C137.995 118.627 138.281 119.5 138.281 120.66V125.84L139.741 126.26V127H135.001V126.26L136.381 125.84V120.7C136.381 119.767 136.235 119.1 135.941 118.7C135.648 118.3 135.195 118.1 134.581 118.1C133.635 118.1 132.901 118.533 132.381 119.4C131.861 120.267 131.601 121.587 131.601 123.36V125.86L132.981 126.26V127H128.241V126.26L129.701 125.82V112.96L128.361 112.72V112ZM148.719 122.22C148.719 120.78 148.499 119.713 148.059 119.02C147.619 118.313 146.899 117.96 145.899 117.96C144.912 117.96 144.179 118.3 143.699 118.98C143.232 119.647 142.999 120.72 142.999 122.2C142.999 123.68 143.232 124.747 143.699 125.4C144.166 126.04 144.879 126.36 145.839 126.36C146.812 126.36 147.532 126.033 147.999 125.38C148.479 124.713 148.719 123.66 148.719 122.22ZM140.979 122.22C140.979 120.647 141.426 119.407 142.319 118.5C143.212 117.58 144.392 117.12 145.859 117.12C147.339 117.12 148.519 117.567 149.399 118.46C150.279 119.353 150.719 120.6 150.719 122.2C150.719 123.8 150.279 125.033 149.399 125.9C148.519 126.753 147.332 127.18 145.839 127.18C144.359 127.18 143.179 126.747 142.299 125.88C141.419 125.013 140.979 123.793 140.979 122.22ZM152.52 117.3H155.84V123.28C155.84 124.333 155.973 125.08 156.24 125.52C156.52 125.96 156.973 126.18 157.6 126.18C158.533 126.18 159.266 125.74 159.8 124.86C160.333 123.98 160.6 122.633 160.6 120.82V118.3L159.14 118.04V117.3H162.46V125.8L164.04 126.26V127H160.72V124.3C160.373 125.247 159.886 125.973 159.26 126.48C158.646 126.973 157.973 127.22 157.24 127.22C155.053 127.22 153.96 126.02 153.96 123.62V118.3L152.52 118.04V117.3ZM168.355 117.3H171.275V118.14H168.355V124.34C168.355 125.127 168.448 125.673 168.635 125.98C168.822 126.273 169.122 126.42 169.535 126.42C169.948 126.42 170.508 126.32 171.215 126.12V126.86C170.282 127.113 169.522 127.24 168.935 127.24C167.308 127.24 166.495 126.26 166.495 124.3V118.14H164.775V117.3H166.495V115.24L168.355 114.18V117.3ZM101.825 145.3H105.145V148.14C105.412 147.34 105.825 146.673 106.385 146.14C106.945 145.593 107.625 145.32 108.425 145.32C108.918 145.32 109.512 145.5 110.205 145.86V148.26H109.425L108.805 146.62C108.552 146.487 108.265 146.42 107.945 146.42C107.358 146.42 106.765 146.767 106.165 147.46C105.578 148.14 105.285 148.873 105.285 149.66V153.84L106.765 154.26V155H101.865V154.26L103.385 153.84V146.3L101.825 146.02V145.3ZM120.051 151.62V153.9C119.291 154.767 118.064 155.2 116.371 155.2C114.691 155.2 113.444 154.76 112.631 153.88C111.817 152.987 111.411 151.753 111.411 150.18C111.411 148.607 111.837 147.373 112.691 146.48C113.557 145.573 114.717 145.12 116.171 145.12C117.037 145.12 117.757 145.28 118.331 145.6C118.917 145.92 119.337 146.347 119.591 146.88C119.991 147.76 120.191 148.687 120.191 149.66H113.411C113.411 151.167 113.584 152.313 113.931 153.1C114.331 153.993 115.117 154.44 116.291 154.44C116.704 154.44 117.097 154.387 117.471 154.28C117.857 154.16 118.137 154.047 118.311 153.94C118.484 153.833 118.571 153.767 118.571 153.74L119.311 151.62H120.051ZM116.131 145.9C114.997 145.9 114.224 146.42 113.811 147.46C113.611 147.927 113.491 148.44 113.451 149H118.451C118.451 146.933 117.677 145.9 116.131 145.9ZM129.966 152.14C129.966 153.033 129.633 153.753 128.966 154.3C128.3 154.833 127.273 155.1 125.886 155.1C124.513 155.1 123.44 154.733 122.666 154V151.68H123.446L124.026 153.64C124.493 154.107 125.24 154.34 126.266 154.34C126.986 154.34 127.533 154.18 127.906 153.86C128.28 153.54 128.466 153.153 128.466 152.7C128.466 152.247 128.273 151.893 127.886 151.64C127.5 151.387 126.733 151.08 125.586 150.72C124.453 150.347 123.66 149.96 123.206 149.56C122.753 149.16 122.526 148.567 122.526 147.78C122.526 146.98 122.853 146.32 123.506 145.8C124.16 145.28 125.12 145.02 126.386 145.02C127.653 145.02 128.673 145.32 129.446 145.92V148.22H128.666L128.046 146.3C127.606 145.953 127.02 145.78 126.286 145.78C124.833 145.78 124.106 146.3 124.106 147.34C124.106 147.727 124.313 148.067 124.726 148.36C125.153 148.64 125.926 148.953 127.046 149.3C128.166 149.647 128.933 150.04 129.346 150.48C129.76 150.907 129.966 151.46 129.966 152.14ZM131.641 145.3H134.961V151.28C134.961 152.333 135.094 153.08 135.361 153.52C135.641 153.96 136.094 154.18 136.721 154.18C137.654 154.18 138.387 153.74 138.921 152.86C139.454 151.98 139.721 150.633 139.721 148.82V146.3L138.261 146.04V145.3H141.581V153.8L143.161 154.26V155H139.841V152.3C139.494 153.247 139.007 153.973 138.381 154.48C137.767 154.973 137.094 155.22 136.361 155.22C134.174 155.22 133.081 154.02 133.081 151.62V146.3L131.641 146.04V145.3ZM144.816 140H148.156V153.82L149.776 154.26V155H144.696V154.26L146.256 153.84V140.96L144.816 140.72V140ZM154.351 145.3H157.271V146.14H154.351V152.34C154.351 153.127 154.444 153.673 154.631 153.98C154.818 154.273 155.118 154.42 155.531 154.42C155.944 154.42 156.504 154.32 157.211 154.12V154.86C156.278 155.113 155.518 155.24 154.931 155.24C153.304 155.24 152.491 154.26 152.491 152.3V146.14H150.771V145.3H152.491V143.24L154.351 142.18V145.3ZM166.04 152.14C166.04 153.033 165.707 153.753 165.04 154.3C164.374 154.833 163.347 155.1 161.96 155.1C160.587 155.1 159.514 154.733 158.74 154V151.68H159.52L160.1 153.64C160.567 154.107 161.314 154.34 162.34 154.34C163.06 154.34 163.607 154.18 163.98 153.86C164.354 153.54 164.54 153.153 164.54 152.7C164.54 152.247 164.347 151.893 163.96 151.64C163.574 151.387 162.807 151.08 161.66 150.72C160.527 150.347 159.734 149.96 159.28 149.56C158.827 149.16 158.6 148.567 158.6 147.78C158.6 146.98 158.927 146.32 159.58 145.8C160.234 145.28 161.194 145.02 162.46 145.02C163.727 145.02 164.747 145.32 165.52 145.92V148.22H164.74L164.12 146.3C163.68 145.953 163.094 145.78 162.36 145.78C160.907 145.78 160.18 146.3 160.18 147.34C160.18 147.727 160.387 148.067 160.8 148.36C161.227 148.64 162 148.953 163.12 149.3C164.24 149.647 165.007 150.04 165.42 150.48C165.834 150.907 166.04 151.46 166.04 152.14Z" fill="black"/>
<ellipse cx="134.538" cy="134.292" rx="46.7446" ry="44.8315" fill="#C4C4C4" fill-opacity="0.31"/>
<path d="M134.298 192.748C147.677 192.746 160.67 188.521 171.208 180.748L204.342 212L215 201.948L181.866 170.695C190.112 160.754 194.593 148.496 194.597 135.874C194.597 104.515 167.545 79 134.298 79C101.051 79 74 104.515 74 135.874C74 167.233 101.051 192.748 134.298 192.748ZM134.298 93.2185C159.239 93.2185 179.522 112.35 179.522 135.874C179.522 159.399 159.239 178.53 134.298 178.53C109.357 178.53 89.0746 159.399 89.0746 135.874C89.0746 112.35 109.357 93.2185 134.298 93.2185Z" fill="black"/>
<path d="M137.298 189.748C150.677 189.746 163.67 185.521 174.208 177.748L207.342 209L218 198.948L184.866 167.695C193.112 157.754 197.593 145.496 197.597 132.874C197.597 101.515 170.545 76 137.298 76C104.051 76 77 101.515 77 132.874C77 164.233 104.051 189.748 137.298 189.748ZM137.298 90.2185C162.239 90.2185 182.522 109.35 182.522 132.874C182.522 156.399 162.239 175.53 137.298 175.53C112.357 175.53 92.0746 156.399 92.0746 132.874C92.0746 109.35 112.357 90.2185 137.298 90.2185Z" fill="#111111"/>
</svg>
